<svg width="120" height="100" viewBox="0 0 120 100" fill="none" xmlns="http://www.w3.org/2000/svg">
<path opacity="0.2" d="M48.2458 37.4492L0.370605 42.4799L5.40125 90.3551L53.2765 85.3245L48.2458 37.4492Z" fill="#082C4E"/>
<path d="M47.8752 34L0 39.0306L5.03064 86.9059L52.9059 81.8752L47.8752 34Z" fill="white"/>
<path d="M40.8148 57.8521L10.3848 61.0021" stroke="#082C4E" stroke-width="1.3824" stroke-miterlimit="10" stroke-linecap="round" stroke-linejoin="round"/>
<path d="M21.3848 66.7222L11.4048 67.9122" stroke="#082C4E" stroke-width="1.3824" stroke-miterlimit="10" stroke-linecap="round" stroke-linejoin="round"/>
<path d="M29.5546 51.5522L9.74463 53.8722" stroke="#082C4E" stroke-width="1.3824" stroke-miterlimit="10" stroke-linecap="round" stroke-linejoin="round"/>
<path opacity="0.2" d="M109.826 68.4802L62.2764 60.9502L69.8064 14.9102L117.356 22.4402L109.826 68.4802Z" fill="#082C4E"/>
<path d="M118.136 17.5301L70.5881 10.001L63.0591 57.5489L110.607 65.078L118.136 17.5301Z" fill="#FFCC00"/>
<path d="M78.3864 28.9598C81.192 28.9598 83.4664 26.6854 83.4664 23.8798C83.4664 21.0742 81.192 18.7998 78.3864 18.7998C75.5808 18.7998 73.3064 21.0742 73.3064 23.8798C73.3064 26.6854 75.5808 28.9598 78.3864 28.9598Z" fill="#3098F3"/>
<path d="M99.5063 51.8402C102.312 51.8402 104.586 49.5658 104.586 46.7602C104.586 43.9546 102.312 41.6802 99.5063 41.6802C96.7007 41.6802 94.4263 43.9546 94.4263 46.7602C94.4263 49.5658 96.7007 51.8402 99.5063 51.8402Z" fill="#3098F3"/>
</svg>
