<svg width="627" height="607" viewBox="0 0 627 607" fill="none" xmlns="http://www.w3.org/2000/svg">
<path d="M512.902 500.758H492.253L494.962 508.038C490.524 509.483 480.428 512.796 475.895 514.099C471.674 515.313 470.517 520.215 473.881 522.495C475.288 523.449 477.173 523.92 479 523.913L509.812 523.803C514.095 523.787 516.922 522.654 517.495 519.026C517.627 518.195 517.555 517.341 517.328 516.531L512.902 500.758Z" fill="#072C4E"/>
<path d="M396.583 500.9H374.687L377.092 508.02C372.654 509.466 362.268 512.907 357.736 514.21C353.515 515.423 352.358 520.324 355.722 522.605C357.129 523.559 359.014 523.92 360.841 523.914H394.129C394.177 523.914 394.225 523.913 394.273 523.912C399.294 523.851 402.735 518.804 401.089 514.056L396.583 500.9Z" fill="#072C4E"/>
<path d="M466.626 298.256C466.626 298.256 481.342 340.202 494.598 383.272C500.537 402.567 521.026 475.682 527.289 493.641C528.413 496.863 526.023 500.598 522.613 500.598H482.05C477.756 500.598 473.188 497.24 471.894 493.141C443.359 402.7 426.858 316.474 426.858 316.474C426.858 316.374 393.715 373.019 386.942 384.595C386.17 385.915 385.934 387.474 386.283 388.963C389.28 401.772 404.04 464.434 412.928 494.473C413.801 497.425 411.668 500.509 408.591 500.533C408.57 500.533 408.548 500.534 408.527 500.533H370.157C367.117 500.533 363.922 498.144 363.048 495.229C352.668 460.65 345.28 426.805 339.01 395.643C336.272 382.043 338.911 374.924 349.794 358.982C362.202 340.805 392.26 292.297 395.63 288.924" stroke="#082C4E" stroke-width="1.17148" stroke-linecap="round" stroke-linejoin="round"/>
<path d="M173.396 501.105H152.748L152.373 506.963C147.935 508.408 136.253 512.196 131.72 513.499C127.5 514.712 126.343 519.614 129.707 521.895C131.113 522.848 133.133 523.209 134.96 523.203H164.4C169.231 523.185 172.208 521.745 172.191 516.909L173.396 501.105Z" fill="#072C4E"/>
<path d="M279.394 500.544H301.29L307.094 506.962C311.532 508.408 323.214 512.196 327.746 513.499C331.967 514.712 333.123 519.614 329.759 521.895C328.353 522.848 326.467 523.208 324.64 523.202H291.352C286.522 523.184 283.959 521.146 283.031 517.274L279.394 500.544Z" fill="#072C4E"/>
<path d="M262.283 329.913C284.524 371.493 317.611 450.685 326.837 492.851C327.61 496.386 324.953 500.492 321.339 500.546H270.8C267.938 500.589 264.833 497.043 264.409 494.209C257.333 446.987 209.371 332.218 202.406 308.827C202.406 308.827 194.584 455.037 194.063 490.633C193.988 495.788 190.549 501.166 185.398 501.166H143.309C137.595 501.166 133.196 496.12 133.973 490.453C143.825 418.616 150.66 339.249 159.944 295.67" stroke="#082C4E" stroke-width="1.17148" stroke-linecap="round" stroke-linejoin="round"/>
<path d="M233.973 292.634C237.568 299.044 242.82 306.076 246.106 310.177" stroke="#082C4E" stroke-width="1.17148" stroke-linecap="round" stroke-linejoin="round"/>
<path d="M121.747 522.182C240.175 524.713 339.572 523.627 339.572 523.627" stroke="#082C4E" stroke-width="1.17148" stroke-linecap="round" stroke-linejoin="round"/>
<path d="M359.456 522.829C376.179 523.186 389.949 523.326 403.97 523.503C489.241 524.581 525.773 523.616 525.773 523.616" stroke="#082C4E" stroke-width="1.17148" stroke-linecap="round" stroke-linejoin="round"/>
<path d="M294.199 164.768C294.199 164.768 316.799 197.202 347.359 213.159C377.246 228.759 415.686 229.09 417.364 229.096" stroke="#092C4E" stroke-width="28.7013" stroke-linejoin="round"/>
<path d="M294.199 164.768C294.199 164.768 316.799 197.202 347.359 213.159C377.246 228.759 415.686 229.09 417.364 229.096" stroke="#FFCC00" stroke-width="26.3583"/>
<path d="M303.421 153.292L278.991 172.46L282.658 175.129L306.919 159.202L303.421 153.292Z" fill="#FFCC00"/>
<path d="M290.94 165.571C287.267 164.774 283.376 157.291 282.29 154C281.453 151.467 282.037 149.531 284.279 148.526C287.508 147.078 291.797 150.858 292.448 151.662" stroke="#082C4E" stroke-width="1.17148" stroke-linecap="round" stroke-linejoin="round"/>
<path d="M290.447 155.797C291.225 156.671 293.105 159.86 293.588 160.925" stroke="#082C4E" stroke-width="1.17148" stroke-linecap="round" stroke-linejoin="round"/>
<path d="M281.345 152.549C277.351 151.718 276.667 155.277 276.924 157.187C277.579 162.062 281.915 168.279 284.509 170.557C285.302 171.252 286.517 171.446 287.505 171.081C288.493 170.717 289.202 169.566 288.859 168.57" stroke="#082C4E" stroke-width="1.17148" stroke-linecap="round" stroke-linejoin="round"/>
<path d="M276.563 156.379C273.356 156.295 272.566 159.725 273.092 162.408C273.996 167.022 277.681 170.767 279.851 172.308C280.903 173.054 283.799 173.767 284.738 171.16" stroke="#082C4E" stroke-width="1.17148" stroke-linecap="round" stroke-linejoin="round"/>
<path d="M308.196 156.914C308.196 156.914 305.344 154.628 298.524 144.856C294.952 139.739 292.988 136.738 291.116 134.932C288.789 132.688 286.69 131.914 285.525 133.191C284.212 134.631 285.646 139.303 287.305 142.638C290.234 148.524 297.585 159.652 299.606 162.219" stroke="#082C4E" stroke-width="1.17148" stroke-linecap="round" stroke-linejoin="round"/>
<path d="M308.161 166.043C305.081 163.577 294.722 160.891 292.308 160.967C289.283 161.062 289.405 164.301 291.644 166.193C294.444 168.561 299.339 169.92 299.749 169.939C300.855 169.992 294.643 171.611 294.013 175.742" stroke="#082C4E" stroke-width="1.17148" stroke-linecap="round" stroke-linejoin="round"/>
<path d="M510.074 353.674C510.074 353.674 535.405 317.124 520.185 280.419C505.296 244.49 463.094 236.198 461.295 235.854" stroke="#092C4E" stroke-width="28.7013" stroke-linejoin="round"/>
<path d="M510.074 353.674C510.074 353.674 535.405 317.124 520.185 280.419C505.296 244.49 463.094 236.198 461.295 235.854" stroke="#FFCC00" stroke-width="26.3583"/>
<path d="M459.15 299.592L401.962 290.65C398.778 290.152 396.601 287.165 397.098 283.978L406.37 224.558C407.836 215.165 416.63 208.74 426.013 210.207L460.752 215.639C470.136 217.106 476.554 225.911 475.089 235.304L465.815 294.723C465.318 297.91 462.335 300.09 459.15 299.592Z" fill="#2F97F3"/>
<path d="M484.459 458.607L394.864 418.528L447.602 300.483L537.197 340.561L484.459 458.607Z" fill="white"/>
<path d="M420.742 402.185C435.635 382.931 450.562 363.703 465.521 344.5C466.526 343.21 467.638 341.846 469.212 341.403C470.828 340.947 472.53 341.577 474.09 342.196C479.504 344.344 484.917 346.492 490.331 348.64" stroke="#082C4E" stroke-width="1.17148" stroke-linecap="round" stroke-linejoin="round"/>
<path d="M422.055 404.899C425.189 405.812 435.224 410.202 435.224 410.202C435.224 410.202 454.504 386.391 455.096 386.278C455.417 386.218 468.05 391.363 467.899 391.864C464.859 401.964 462.79 412.377 460.648 419.339C460.523 419.748 476.884 427.033 477.164 426.912C477.668 426.695 478.091 425.024 478.21 424.488C480.278 415.161 489.379 370.855 489.676 363.778" stroke="#082C4E" stroke-width="1.17148" stroke-linecap="round" stroke-linejoin="round"/>
<path d="M462.029 374.674C462.029 374.674 469.391 378.051 471.386 378.827C471.82 378.996 475.516 356.126 475.516 356.126L462.029 374.674Z" stroke="#082C4E" stroke-width="1.17148" stroke-linecap="round" stroke-linejoin="round"/>
<path d="M496.677 344.485C493.497 349.479 484.265 358.684 487.016 360.852C490.294 363.435 496.868 355.716 499.759 351.815" stroke="#082C4E" stroke-width="1.17148" stroke-linecap="round" stroke-linejoin="round"/>
<path d="M494.361 369.449C494.284 372.1 497.701 371.535 499.593 370.451C504.579 367.594 507.996 362.052 510.434 358.072" stroke="#082C4E" stroke-width="1.17148" stroke-linecap="round" stroke-linejoin="round"/>
<path d="M500.821 349.687C498.976 353.102 498.545 355.009 494.022 360.881C491.586 364.042 488.022 368.271 490.245 369.54C494.731 372.1 502.251 361.389 505.662 355.243" stroke="#082C4E" stroke-width="1.17148" stroke-linecap="round" stroke-linejoin="round"/>
<path d="M500.028 372.173C500.446 372.867 501.787 373.841 503.954 372.965C507.542 371.516 511.237 368.823 513.165 365.466" stroke="#082C4E" stroke-width="1.17148" stroke-linecap="round" stroke-linejoin="round"/>
<path d="M496.631 344.343C496.631 344.343 504.592 334.423 506.666 321.611" stroke="#092C4E" stroke-width="1.17148"/>
<path d="M534.737 337.847C534.737 337.847 532.001 348.704 527.252 356.275" stroke="#092C4E" stroke-width="1.17148"/>
<path d="M396.953 243.691C396.953 243.691 400.938 244.643 414.106 243.227" stroke="#092C4E" stroke-width="1.17148"/>
<path d="M404.505 212.54C404.505 212.54 408.804 213.087 420.667 212.594" stroke="#092C4E" stroke-width="1.17148"/>
<path d="M474.338 256.925C474.338 256.925 470.147 254.242 460.633 253.062" stroke="#092C4E" stroke-width="1.17148"/>
<path d="M479.216 224.599C479.216 224.599 470.725 220.958 462.533 220.667" stroke="#092C4E" stroke-width="1.17148"/>
<path d="M441.748 193.427C441.748 193.427 436.297 197.104 430.163 194.083" stroke="#082C4E" stroke-width="1.17148" stroke-linecap="round" stroke-linejoin="round"/>
<path d="M434.205 184.656L431.047 189.739L433.767 191.193" stroke="#082C4E" stroke-width="1.17148" stroke-linecap="round" stroke-linejoin="round"/>
<path d="M433.936 183.883C433.786 186.116 431.856 187.805 429.625 187.655C427.394 187.505 425.707 185.574 425.857 183.34C426.006 181.107 427.936 179.418 430.167 179.568C432.398 179.718 434.085 181.649 433.936 183.883Z" stroke="#082C4E" stroke-width="1.17148" stroke-linecap="round" stroke-linejoin="round"/>
<path d="M444.024 185.018C443.874 187.251 441.944 188.94 439.713 188.79C437.483 188.64 435.795 186.709 435.946 184.476C436.095 182.243 438.025 180.554 440.255 180.703C442.486 180.853 444.173 182.784 444.024 185.018Z" stroke="#082C4E" stroke-width="1.17148" stroke-linecap="round" stroke-linejoin="round"/>
<path d="M434.225 184.36L435.946 184.476L434.225 184.36Z" fill="#2F97F3"/>
<path d="M434.225 184.36L435.946 184.476" stroke="#082C4E" stroke-width="1.17148" stroke-linecap="round" stroke-linejoin="round"/>
<path d="M448.474 170.272C446.352 167.477 443.088 165.575 439.314 165.322C432.388 164.857 426.397 170.1 425.933 177.033L442.271 178.129C443.799 181.254 446.846 182.348 449.426 182.857C452.085 183.381 453.286 184.748 453.589 186.402C453.666 186.821 453.719 187.267 453.77 187.729C454.359 187.513 455.001 187.41 455.668 187.455C458.214 187.626 460.139 189.83 459.968 192.378C459.864 193.933 459.002 195.254 457.768 196.011C459.256 197.072 461.052 197.736 463.008 197.868C463.023 197.868 463.038 197.868 463.054 197.87C464.25 195.599 465.002 193.049 465.184 190.324C465.863 180.197 458.446 171.402 448.474 170.272Z" fill="#FD6470"/>
<path d="M462.278 198.94C458.748 204.084 452.829 207.458 446.124 207.458C435.309 207.458 426.541 198.681 426.541 187.854C426.541 187.34 426.56 186.831 426.599 186.325" stroke="#082C4E" stroke-width="1.17148" stroke-linecap="round" stroke-linejoin="round"/>
<path d="M199.664 178.147L204.808 181.647L202.677 184.418" stroke="#082C4E" stroke-width="1.17148" stroke-linecap="round" stroke-linejoin="round"/>
<path d="M205.069 186.676C205.069 186.676 200.452 190.349 195.386 188.845C195.386 188.845 196.199 195.456 202.597 194.229" stroke="#082C4E" stroke-width="1.17148" stroke-linecap="round" stroke-linejoin="round"/>
<path d="M203.192 174.415C205.848 177.767 207.43 182.01 207.422 186.621C207.402 197.448 198.618 206.209 187.803 206.189C181.994 206.178 176.782 203.638 173.203 199.611" stroke="#082C4E" stroke-width="1.17148" stroke-linecap="round" stroke-linejoin="round"/>
<path d="M202.789 172.989C198.598 168.133 192.307 165.566 185.942 166.072C185.93 166.072 184.338 166.229 183.272 166.482C181.735 166.848 180.41 167.285 179.423 167.719C177.224 168.688 175.284 169.995 173.634 171.547C173.287 171.184 172.914 170.839 172.498 170.529C168.489 167.544 162.821 168.378 159.84 172.391C156.858 176.404 157.69 182.077 161.699 185.062C163.395 186.325 165.387 186.897 167.347 186.841C167.407 188.345 167.639 189.861 168.055 191.363C169.119 195.752 171.944 198.977 171.944 198.977C177.366 196.823 179.846 194.789 180.97 192.823C180.812 192.828 180.653 192.825 180.492 192.814C177.947 192.638 176.026 190.431 176.201 187.883C176.376 185.335 178.582 183.411 181.127 183.587C181.556 183.617 181.964 183.708 182.351 183.845C182.782 182.792 183.57 181.735 184.998 180.666C189.319 177.435 190.594 174.288 190.443 171.748C194.255 173.414 198.567 173.911 202.789 172.989Z" fill="#2F97F3"/>
<path d="M58.4339 477.973C58.4339 487.864 64.6296 496.302 73.3462 499.623C68.1871 502.346 64.6687 507.765 64.6687 514.009V522.379H103.426V514.009C103.426 507.765 99.9071 502.346 94.748 499.623C103.465 496.302 109.66 487.864 109.66 477.973V454.353H58.4339V477.973Z" fill="#2F97F3"/>
<path d="M67.6668 419.985C73.386 431.609 77.5495 443.998 80.0124 456.719" stroke="#082C4E" stroke-width="1.17148" stroke-linecap="round" stroke-linejoin="round"/>
<path d="M84.6766 455.581C87.0917 439.332 98.2698 418.19 101.864 414.873" stroke="#082C4E" stroke-width="1.17148" stroke-linecap="round" stroke-linejoin="round"/>
<path d="M75.5725 454.028C72.7806 450.557 70.1418 446.962 67.6668 443.259C66.0383 440.821 62.0406 433.821 65.2349 433C67.1147 432.517 69.8479 436.238 71.6213 438.42C66.5593 431.025 61.6955 422.893 61.498 413.93C61.4246 410.595 62.4525 406.948 65.3353 405.275C68.9495 403.177 72.4322 406.776 74.1173 409.699C79.2574 418.619 78.1048 425.105 79.2669 435.333C79.5243 434.511 79.678 432.021 80.9405 432.014C85.0238 431.991 83.4425 450.043 82.486 453.894" stroke="#082C4E" stroke-width="1.17148" stroke-linecap="round" stroke-linejoin="round"/>
<path d="M84.8458 433.203C86.2283 426.455 89.8249 410.911 94.3867 411.125C96.3596 411.218 96.4095 414.44 96.2383 415.322C97.9227 409.672 102.377 404.92 107.905 402.88C109.216 402.396 110.762 402.08 111.949 402.816C113.022 403.482 113.481 404.857 113.391 406.116C113.3 407.375 112.754 408.55 112.199 409.684C109.989 414.192 105.988 420.078 103.213 424.263C106.808 421.788 108.368 421.234 110.262 421.544C111.783 421.794 112.785 423.412 112.832 424.955C112.88 426.498 112.198 427.963 111.465 429.322C108.53 434.763 104.494 439.604 99.6718 443.469C101.055 443.673 102.805 442.451 103.663 443.556C103.88 443.836 103.952 444.205 103.955 444.56C103.966 446.137 102.789 447.447 101.62 448.502C98.6709 451.165 95.2812 453.335 91.6306 454.899" stroke="#082C4E" stroke-width="1.17148" stroke-linecap="round" stroke-linejoin="round"/>
<path d="M487.103 138.5H530.358V197.738H487.103V138.5Z" fill="#FD6470"/>
<path d="M492.963 144.736H524.469V191.112H492.963V144.736Z" stroke="#082C4E" stroke-width="1.17148" stroke-linecap="round" stroke-linejoin="round"/>
<path d="M513.605 162.992C513.605 167.402 510.033 170.976 505.628 170.976C501.223 170.976 497.652 167.402 497.652 162.992C497.652 158.583 501.223 155.008 505.628 155.008C510.033 155.008 513.605 158.583 513.605 162.992Z" stroke="#082C4E" stroke-width="1.17148" stroke-linecap="round" stroke-linejoin="round"/>
<path d="M509.111 180.647C509.111 177.293 511.827 174.575 515.177 174.575C518.528 174.575 521.244 177.293 521.244 180.647" stroke="#082C4E" stroke-width="1.17148" stroke-linecap="round" stroke-linejoin="round"/>
<path d="M267.337 323.447C299.712 307.804 325.714 289.685 317.081 257.508C303.847 208.18 222.516 216.615 222.516 216.615" stroke="#082C4E" stroke-width="1.17148" stroke-linecap="round" stroke-linejoin="round"/>
<path d="M229.369 247.09C229.369 247.09 274.864 241.073 286.325 258.785C294.264 271.055 289.74 283.597 271.945 293.871C264.243 298.319 251.834 302.045 244.083 306.607" stroke="#082C4E" stroke-width="1.17148" stroke-linecap="round" stroke-linejoin="round"/>
<path d="M258.884 322.351C257.178 325.366 255.201 330.062 254.924 333.906C254.887 334.435 254.961 335.274 255.32 335.663C255.946 336.343 257.083 335.909 257.813 335.343" stroke="#082C4E" stroke-width="1.17148" stroke-linecap="round" stroke-linejoin="round"/>
<path d="M248.921 307.711C246.723 309.871 244.512 312.044 242.701 314.54C240.89 317.034 239.481 319.891 239.085 322.949C239.004 323.572 239.021 324.322 239.541 324.674C239.816 324.86 240.174 324.881 240.502 324.827C241.702 324.627 242.548 323.58 243.294 322.619C245.446 319.848 247.731 317.181 250.14 314.631C247.753 318.359 245.335 322.148 244.068 326.39C243.904 326.938 243.758 327.509 243.831 328.077C243.904 328.645 244.241 329.213 244.781 329.4C245.284 329.575 245.838 329.393 246.318 329.162C248.497 328.116 250.05 326.11 251.33 324.057C252.608 322.005 254.109 319.371 255.036 318.106C252.794 321.34 249.728 326.427 248.942 331.15C248.69 332.66 248.993 333.934 249.812 334.412C250.824 335.001 252.01 333.763 252.355 333.356C254.944 330.319 256.967 325.443 258.799 322.491" stroke="#082C4E" stroke-width="1.17148" stroke-linecap="round" stroke-linejoin="round"/>
<path d="M154.095 123.441C154.095 123.441 88.3697 142.002 95.7503 190.812C102.989 238.664 168.761 237.915 171.323 237.868" stroke="#092C4E" stroke-width="28.7013" stroke-linejoin="round"/>
<path d="M154.095 123.441C154.095 123.441 88.3697 142.002 95.7503 190.812C102.989 238.664 168.761 237.915 171.323 237.868" stroke="#FFCC00" stroke-width="26.3583"/>
<path d="M250.46 97.6791L248.943 92.8501C248.539 91.5641 247.435 90.6247 246.102 90.4332L202.343 84.1395C200.928 83.9365 199.485 84.1585 198.197 84.7786L172.546 98.7195C170.96 94.71 166.474 92.6541 162.39 94.125L155.612 96.5671C151.446 98.0671 149.285 102.662 150.783 106.83L163.267 141.56C164.765 145.728 169.356 147.891 173.522 146.391L180.3 143.949C183.664 142.737 185.718 139.507 185.596 136.113L213.346 133.29C214.828 133.117 216.216 132.473 217.306 131.452L249.512 101.289C250.496 100.368 250.864 98.9644 250.46 97.6791Z" fill="white"/>
<path d="M249.79 95.5595L215.765 106.271" stroke="#082C4E" stroke-width="1.17148" stroke-linecap="round" stroke-linejoin="round"/>
<path d="M204.731 109.745C203.773 106.695 205.467 103.444 208.514 102.485C211.562 101.526 214.809 103.221 215.767 106.27C216.726 109.32 215.032 112.571 211.985 113.531C208.937 114.49 205.69 112.794 204.731 109.745Z" stroke="#082C4E" stroke-width="1.17148" stroke-linecap="round" stroke-linejoin="round"/>
<path d="M148.307 110.629L155.919 137.753L159.822 137.628L151.331 108.617L148.307 110.629Z" fill="#FFCC00"/>
<path d="M147.277 122.093C151.265 120.035 157.269 118.24 161.8 115.621C166.173 113.093 164.707 110.76 160.686 111.342C157.68 111.778 150.336 113.552 144.892 116.021" stroke="#082C4E" stroke-width="1.17148" stroke-linecap="round" stroke-linejoin="round"/>
<path d="M149.494 128.175C150.814 127.325 168.901 121.692 166.924 118.531C164.952 115.379 149.865 121.544 147.365 122.174" stroke="#082C4E" stroke-width="1.17148" stroke-linecap="round" stroke-linejoin="round"/>
<path d="M151.973 133.342C164.312 128.161 169.679 126.372 168.529 124.178C167.397 122.019 156.473 126.023 149.662 128.167" stroke="#082C4E" stroke-width="1.17148" stroke-linecap="round" stroke-linejoin="round"/>
<path d="M235.725 281.487C234.97 272.197 226.978 265.238 217.745 265.696C224.074 262.663 228.15 255.907 227.436 248.51L225.231 225.665C224.318 216.202 215.915 209.271 206.461 210.186L174.131 213.313C164.678 214.227 157.755 222.639 158.669 232.101L160.873 254.946C161.539 261.851 166.196 267.403 172.337 269.547C164.078 271.376 158.226 279.068 158.931 287.744C159.701 297.22 167.999 304.275 177.465 303.504L219.981 300.041C229.447 299.269 236.496 290.962 235.725 281.487Z" fill="#FD6470"/>
</svg>
