<svg width="100" height="100" viewBox="0 0 100 100" fill="none" xmlns="http://www.w3.org/2000/svg">
<path d="M49.6828 0.55835L92.5432 25.2735V74.7039L49.6828 99.419L6.82239 74.7039V25.2735L49.6828 0.55835Z" fill="#3098F3"/>
<path d="M49.6826 32.1927C59.5224 32.1927 67.4993 40.1598 67.4993 49.9876C67.4993 59.8155 59.5224 67.7826 49.6826 67.7826C39.8427 67.7826 31.8658 59.8155 31.8658 49.9876C31.8658 40.1598 39.8427 32.1927 49.6826 32.1927Z" fill="#FFCC00"/>
<path d="M49.6763 72.5653C62.6137 72.5653 73.1015 62.1108 73.1015 49.2146C73.1015 36.3184 62.6137 25.864 49.6763 25.864C36.739 25.864 26.2512 36.3184 26.2512 49.2146C26.2512 62.1108 36.739 72.5653 49.6763 72.5653Z" stroke="#082C4E" stroke-width="2" stroke-miterlimit="10" stroke-linecap="round" stroke-linejoin="round"/>
</svg>
